<svg width="110" height="88" viewBox="0 0 110 88" fill="none" xmlns="http://www.w3.org/2000/svg">
<mask id="path-1-outside-1_1_157" maskUnits="userSpaceOnUse" x="-2.99997" y="-2" width="115" height="92" fill="black">
<rect fill="white" x="-2.99997" y="-2" width="115" height="92"/>
<path d="M35.9957 87.44C29.1157 87.44 22.9557 85.76 17.5157 82.4C12.0757 78.96 7.79566 74 4.67565 67.52C1.55565 61.04 -0.00434515 53.2 -0.00434515 44C-0.00434515 34.8 1.55565 26.96 4.67565 20.48C7.79566 14 12.0757 9.08 17.5157 5.72C22.9557 2.28 29.1157 0.559999 35.9957 0.559999C42.9557 0.559999 49.1157 2.28 54.4757 5.72C59.9157 9.08 64.1957 14 67.3157 20.48C70.4357 26.96 71.9957 34.8 71.9957 44C71.9957 53.2 70.4357 61.04 67.3157 67.52C64.1957 74 59.9157 78.96 54.4757 82.4C49.1157 85.76 42.9557 87.44 35.9957 87.44ZM35.9957 71C39.2757 71 42.1157 70.08 44.5157 68.24C46.9957 66.4 48.9157 63.48 50.2757 59.48C51.7157 55.48 52.4357 50.32 52.4357 44C52.4357 37.68 51.7157 32.52 50.2757 28.52C48.9157 24.52 46.9957 21.6 44.5157 19.76C42.1157 17.92 39.2757 17 35.9957 17C32.7957 17 29.9557 17.92 27.4757 19.76C25.0757 21.6 23.1557 24.52 21.7157 28.52C20.3557 32.52 19.6757 37.68 19.6757 44C19.6757 50.32 20.3557 55.48 21.7157 59.48C23.1557 63.48 25.0757 66.4 27.4757 68.24C29.9557 70.08 32.7957 71 35.9957 71ZM90.3322 86V9.19999L98.7322 17.6H73.5322V1.99999H109.772V86H90.3322Z"/>
</mask>
<path d="M35.9957 87.44C29.1157 87.44 22.9557 85.76 17.5157 82.4C12.0757 78.96 7.79566 74 4.67565 67.52C1.55565 61.04 -0.00434515 53.2 -0.00434515 44C-0.00434515 34.8 1.55565 26.96 4.67565 20.48C7.79566 14 12.0757 9.08 17.5157 5.72C22.9557 2.28 29.1157 0.559999 35.9957 0.559999C42.9557 0.559999 49.1157 2.28 54.4757 5.72C59.9157 9.08 64.1957 14 67.3157 20.48C70.4357 26.96 71.9957 34.8 71.9957 44C71.9957 53.2 70.4357 61.04 67.3157 67.52C64.1957 74 59.9157 78.96 54.4757 82.4C49.1157 85.76 42.9557 87.44 35.9957 87.44ZM35.9957 71C39.2757 71 42.1157 70.08 44.5157 68.24C46.9957 66.4 48.9157 63.48 50.2757 59.48C51.7157 55.48 52.4357 50.32 52.4357 44C52.4357 37.68 51.7157 32.52 50.2757 28.52C48.9157 24.52 46.9957 21.6 44.5157 19.76C42.1157 17.92 39.2757 17 35.9957 17C32.7957 17 29.9557 17.92 27.4757 19.76C25.0757 21.6 23.1557 24.52 21.7157 28.52C20.3557 32.52 19.6757 37.68 19.6757 44C19.6757 50.32 20.3557 55.48 21.7157 59.48C23.1557 63.48 25.0757 66.4 27.4757 68.24C29.9557 70.08 32.7957 71 35.9957 71ZM90.3322 86V9.19999L98.7322 17.6H73.5322V1.99999H109.772V86H90.3322Z" fill="#040E25" fill-opacity="0.85"/>
<path d="M17.5157 82.4L16.4467 84.0904L16.4557 84.096L16.4647 84.1016L17.5157 82.4ZM4.67565 67.52L2.87365 68.3876L4.67565 67.52ZM4.67565 20.48L6.47766 21.3476L6.47766 21.3476L4.67565 20.48ZM17.5157 5.72L18.5666 7.42159L18.5756 7.41604L18.5846 7.41038L17.5157 5.72ZM54.4757 5.72L53.3954 7.40317L53.41 7.41251L53.4247 7.42159L54.4757 5.72ZM67.3157 20.48L65.5137 21.3476L65.5137 21.3476L67.3157 20.48ZM67.3157 67.52L65.5137 66.6524L65.5137 66.6524L67.3157 67.52ZM54.4757 82.4L55.5379 84.0946L55.5446 84.0904L54.4757 82.4ZM44.5157 68.24L43.324 66.6338L43.3113 66.6432L43.2988 66.6528L44.5157 68.24ZM50.2757 59.48L48.3939 58.8026L48.3878 58.8193L48.3821 58.8362L50.2757 59.48ZM50.2757 28.52L48.3821 29.1638L48.3878 29.1807L48.3939 29.1974L50.2757 28.52ZM44.5157 19.76L43.2988 21.3472L43.3113 21.3568L43.324 21.3662L44.5157 19.76ZM27.4757 19.76L26.284 18.1538L26.2713 18.1632L26.2588 18.1728L27.4757 19.76ZM21.7157 28.52L19.8339 27.8426L19.8278 27.8593L19.8221 27.8762L21.7157 28.52ZM21.7157 59.48L19.8221 60.1238L19.8278 60.1407L19.8339 60.1574L21.7157 59.48ZM27.4757 68.24L26.2588 69.8272L26.2713 69.8368L26.284 69.8462L27.4757 68.24ZM35.9957 85.44C29.4575 85.44 23.6667 83.8485 18.5666 80.6984L16.4647 84.1016C22.2446 87.6715 28.7738 89.44 35.9957 89.44V85.44ZM18.5846 80.7096C13.4974 77.4927 9.45481 72.8357 6.47766 66.6524L2.87365 68.3876C6.1365 75.1643 10.6539 80.4273 16.4467 84.0904L18.5846 80.7096ZM6.47766 66.6524C3.51911 60.5077 1.99565 52.9807 1.99565 44H-2.00435C-2.00435 53.4193 -0.407798 61.5723 2.87365 68.3876L6.47766 66.6524ZM1.99565 44C1.99565 35.0193 3.51911 27.4923 6.47766 21.3476L2.87365 19.6124C-0.407798 26.4277 -2.00435 34.5807 -2.00435 44H1.99565ZM6.47766 21.3476C9.45334 15.1674 13.4908 10.5567 18.5666 7.42159L16.4647 4.0184C10.6605 7.60334 6.13797 12.8326 2.87365 19.6124L6.47766 21.3476ZM18.5846 7.41038C23.6825 4.18672 29.4668 2.56 35.9957 2.56V-1.44C28.7645 -1.44 22.2288 0.373281 16.4467 4.02961L18.5846 7.41038ZM35.9957 2.56C42.6096 2.56 48.3875 4.18912 53.3954 7.40317L55.5559 4.03682C49.8438 0.370876 43.3017 -1.44 35.9957 -1.44V2.56ZM53.4247 7.42159C58.5005 10.5567 62.538 15.1674 65.5137 21.3476L69.1177 19.6124C65.8533 12.8326 61.3308 7.60334 55.5266 4.0184L53.4247 7.42159ZM65.5137 21.3476C68.4722 27.4923 69.9957 35.0193 69.9957 44H73.9957C73.9957 34.5807 72.3991 26.4277 69.1177 19.6124L65.5137 21.3476ZM69.9957 44C69.9957 52.9807 68.4722 60.5077 65.5137 66.6524L69.1177 68.3876C72.3991 61.5723 73.9957 53.4193 73.9957 44H69.9957ZM65.5137 66.6524C62.5365 72.8357 58.4939 77.4927 53.4067 80.7096L55.5446 84.0904C61.3374 80.4273 65.8548 75.1643 69.1177 68.3876L65.5137 66.6524ZM53.4134 80.7054C48.4032 83.8461 42.6189 85.44 35.9957 85.44V89.44C43.2924 89.44 49.8281 87.6739 55.5379 84.0946L53.4134 80.7054ZM35.9957 73C39.6761 73 42.9532 71.958 45.7325 69.8272L43.2988 66.6528C41.2781 68.202 38.8752 69 35.9957 69V73ZM45.7074 69.8462C48.6138 67.6898 50.7254 64.3704 52.1692 60.1238L48.3821 58.8362C47.106 62.5896 45.3775 65.1102 43.324 66.6338L45.7074 69.8462ZM52.1574 60.1574C53.7039 55.8617 54.4357 50.4495 54.4357 44H50.4357C50.4357 50.1905 49.7274 55.0983 48.3939 58.8026L52.1574 60.1574ZM54.4357 44C54.4357 37.5505 53.7039 32.1383 52.1574 27.8426L48.3939 29.1974C49.7274 32.9017 50.4357 37.8095 50.4357 44H54.4357ZM52.1692 27.8762C50.7254 23.6296 48.6138 20.3102 45.7074 18.1538L43.324 21.3662C45.3775 22.8898 47.106 25.4104 48.3821 29.1638L52.1692 27.8762ZM45.7325 18.1728C42.9532 16.042 39.6761 15 35.9957 15V19C38.8752 19 41.2781 19.798 43.2988 21.3472L45.7325 18.1728ZM35.9957 15C32.3831 15 29.1218 16.0483 26.284 18.1538L28.6673 21.3662C30.7895 19.7917 33.2082 19 35.9957 19V15ZM26.2588 18.1728C23.4546 20.3226 21.3533 23.6221 19.8339 27.8426L23.5974 29.1974C24.9581 25.4179 26.6967 22.8774 28.6925 21.3472L26.2588 18.1728ZM19.8221 27.8762C18.3659 32.1592 17.6757 37.5586 17.6757 44H21.6757C21.6757 37.8014 22.3454 32.8808 23.6092 29.1638L19.8221 27.8762ZM17.6757 44C17.6757 50.4414 18.3659 55.8408 19.8221 60.1238L23.6092 58.8362C22.3454 55.1192 21.6757 50.1986 21.6757 44H17.6757ZM19.8339 60.1574C21.3533 64.3779 23.4546 67.6774 26.2588 69.8272L28.6925 66.6528C26.6967 65.1226 24.9581 62.5821 23.5974 58.8026L19.8339 60.1574ZM26.284 69.8462C29.1218 71.9517 32.3831 73 35.9957 73V69C33.2082 69 30.7895 68.2083 28.6673 66.6338L26.284 69.8462ZM90.3322 86H88.3322V88H90.3322V86ZM90.3322 9.19999L91.7464 7.78578L88.3322 4.37157V9.19999H90.3322ZM98.7322 17.6V19.6H103.561L100.146 16.1858L98.7322 17.6ZM73.5322 17.6H71.5322V19.6H73.5322V17.6ZM73.5322 1.99999V-5.72205e-06H71.5322V1.99999H73.5322ZM109.772 1.99999H111.772V-5.72205e-06H109.772V1.99999ZM109.772 86V88H111.772V86H109.772ZM92.3322 86V9.19999H88.3322V86H92.3322ZM88.918 10.6142L97.318 19.0142L100.146 16.1858L91.7464 7.78578L88.918 10.6142ZM98.7322 15.6H73.5322V19.6H98.7322V15.6ZM75.5322 17.6V1.99999H71.5322V17.6H75.5322ZM73.5322 3.99999H109.772V-5.72205e-06H73.5322V3.99999ZM107.772 1.99999V86H111.772V1.99999H107.772ZM109.772 84H90.3322V88H109.772V84Z" fill="white" fill-opacity="0.28" mask="url(#path-1-outside-1_1_157)"/>
</svg>
