<svg width="141" height="88" viewBox="0 0 141 88" fill="none" xmlns="http://www.w3.org/2000/svg">
<mask id="path-1-outside-1_1_224" maskUnits="userSpaceOnUse" x="-2" y="-2.00366" width="145" height="92" fill="black">
<rect fill="white" x="-2" y="-2.00366" width="145" height="92"/>
<path d="M36.5222 87.4363C29.6422 87.4363 23.4822 85.7563 18.0422 82.3963C12.6022 78.9563 8.32219 73.9963 5.20219 67.5163C2.08219 61.0363 0.522194 53.1963 0.522194 43.9963C0.522194 34.7963 2.08219 26.9563 5.20219 20.4763C8.32219 13.9963 12.6022 9.07633 18.0422 5.71633C23.4822 2.27634 29.6422 0.556336 36.5222 0.556336C43.4822 0.556336 49.6422 2.27634 55.0022 5.71633C60.4422 9.07633 64.7222 13.9963 67.8422 20.4763C70.9622 26.9563 72.5222 34.7963 72.5222 43.9963C72.5222 53.1963 70.9622 61.0363 67.8422 67.5163C64.7222 73.9963 60.4422 78.9563 55.0022 82.3963C49.6422 85.7563 43.4822 87.4363 36.5222 87.4363ZM36.5222 70.9963C39.8022 70.9963 42.6422 70.0763 45.0422 68.2363C47.5222 66.3963 49.4422 63.4763 50.8022 59.4763C52.2422 55.4763 52.9622 50.3163 52.9622 43.9963C52.9622 37.6763 52.2422 32.5163 50.8022 28.5163C49.4422 24.5163 47.5222 21.5963 45.0422 19.7563C42.6422 17.9163 39.8022 16.9963 36.5222 16.9963C33.3222 16.9963 30.4822 17.9163 28.0022 19.7563C25.6022 21.5963 23.6822 24.5163 22.2422 28.5163C20.8822 32.5163 20.2022 37.6763 20.2022 43.9963C20.2022 50.3163 20.8822 55.4763 22.2422 59.4763C23.6822 63.4763 25.6022 66.3963 28.0022 68.2363C30.4822 70.0763 33.3222 70.9963 36.5222 70.9963ZM77.1788 85.9963V73.3963L109.579 42.7963C112.139 40.4763 114.019 38.3963 115.219 36.5563C116.419 34.7163 117.219 33.0363 117.619 31.5163C118.099 29.9963 118.339 28.5963 118.339 27.3163C118.339 23.9563 117.179 21.3963 114.859 19.6363C112.619 17.7963 109.299 16.8763 104.899 16.8763C101.379 16.8763 98.0988 17.5563 95.0588 18.9163C92.0988 20.2763 89.5788 22.3963 87.4988 25.2763L73.3388 16.1563C76.5388 11.3563 81.0188 7.55633 86.7788 4.75633C92.5388 1.95634 99.1788 0.556336 106.699 0.556336C112.939 0.556336 118.379 1.59633 123.019 3.67633C127.739 5.67633 131.379 8.51634 133.939 12.1963C136.579 15.8763 137.899 20.2763 137.899 25.3963C137.899 28.1163 137.539 30.8363 136.819 33.5563C136.179 36.1963 134.819 38.9963 132.739 41.9563C130.739 44.9163 127.779 48.2363 123.859 51.9163L96.9788 77.2363L93.2588 70.1563H140.659V85.9963H77.1788Z"/>
</mask>
<path d="M36.5222 87.4363C29.6422 87.4363 23.4822 85.7563 18.0422 82.3963C12.6022 78.9563 8.32219 73.9963 5.20219 67.5163C2.08219 61.0363 0.522194 53.1963 0.522194 43.9963C0.522194 34.7963 2.08219 26.9563 5.20219 20.4763C8.32219 13.9963 12.6022 9.07633 18.0422 5.71633C23.4822 2.27634 29.6422 0.556336 36.5222 0.556336C43.4822 0.556336 49.6422 2.27634 55.0022 5.71633C60.4422 9.07633 64.7222 13.9963 67.8422 20.4763C70.9622 26.9563 72.5222 34.7963 72.5222 43.9963C72.5222 53.1963 70.9622 61.0363 67.8422 67.5163C64.7222 73.9963 60.4422 78.9563 55.0022 82.3963C49.6422 85.7563 43.4822 87.4363 36.5222 87.4363ZM36.5222 70.9963C39.8022 70.9963 42.6422 70.0763 45.0422 68.2363C47.5222 66.3963 49.4422 63.4763 50.8022 59.4763C52.2422 55.4763 52.9622 50.3163 52.9622 43.9963C52.9622 37.6763 52.2422 32.5163 50.8022 28.5163C49.4422 24.5163 47.5222 21.5963 45.0422 19.7563C42.6422 17.9163 39.8022 16.9963 36.5222 16.9963C33.3222 16.9963 30.4822 17.9163 28.0022 19.7563C25.6022 21.5963 23.6822 24.5163 22.2422 28.5163C20.8822 32.5163 20.2022 37.6763 20.2022 43.9963C20.2022 50.3163 20.8822 55.4763 22.2422 59.4763C23.6822 63.4763 25.6022 66.3963 28.0022 68.2363C30.4822 70.0763 33.3222 70.9963 36.5222 70.9963ZM77.1788 85.9963V73.3963L109.579 42.7963C112.139 40.4763 114.019 38.3963 115.219 36.5563C116.419 34.7163 117.219 33.0363 117.619 31.5163C118.099 29.9963 118.339 28.5963 118.339 27.3163C118.339 23.9563 117.179 21.3963 114.859 19.6363C112.619 17.7963 109.299 16.8763 104.899 16.8763C101.379 16.8763 98.0988 17.5563 95.0588 18.9163C92.0988 20.2763 89.5788 22.3963 87.4988 25.2763L73.3388 16.1563C76.5388 11.3563 81.0188 7.55633 86.7788 4.75633C92.5388 1.95634 99.1788 0.556336 106.699 0.556336C112.939 0.556336 118.379 1.59633 123.019 3.67633C127.739 5.67633 131.379 8.51634 133.939 12.1963C136.579 15.8763 137.899 20.2763 137.899 25.3963C137.899 28.1163 137.539 30.8363 136.819 33.5563C136.179 36.1963 134.819 38.9963 132.739 41.9563C130.739 44.9163 127.779 48.2363 123.859 51.9163L96.9788 77.2363L93.2588 70.1563H140.659V85.9963H77.1788Z" fill="#040E25" fill-opacity="0.85"/>
<path d="M18.0422 82.3963L16.9733 84.0867L16.9822 84.0924L16.9912 84.0979L18.0422 82.3963ZM5.20219 67.5163L3.40019 68.384L5.20219 67.5163ZM5.20219 20.4763L7.0042 21.344L7.0042 21.344L5.20219 20.4763ZM18.0422 5.71633L19.0932 7.41793L19.1022 7.41237L19.1111 7.40672L18.0422 5.71633ZM55.0022 5.71633L53.922 7.39951L53.9365 7.40885L53.9512 7.41793L55.0022 5.71633ZM67.8422 20.4763L66.0402 21.344L66.0402 21.344L67.8422 20.4763ZM67.8422 67.5163L66.0402 66.6487L66.0402 66.6487L67.8422 67.5163ZM55.0022 82.3963L56.0645 84.0909L56.0711 84.0867L55.0022 82.3963ZM45.0422 68.2363L43.8505 66.6301L43.8378 66.6395L43.8253 66.6491L45.0422 68.2363ZM50.8022 59.4763L48.9204 58.7989L48.9144 58.8157L48.9087 58.8325L50.8022 59.4763ZM50.8022 28.5163L48.9087 29.1601L48.9144 29.177L48.9204 29.1938L50.8022 28.5163ZM45.0422 19.7563L43.8253 21.3435L43.8378 21.3531L43.8505 21.3625L45.0422 19.7563ZM28.0022 19.7563L26.8105 18.1501L26.7978 18.1595L26.7853 18.1691L28.0022 19.7563ZM22.2422 28.5163L20.3604 27.8389L20.3544 27.8557L20.3486 27.8725L22.2422 28.5163ZM22.2422 59.4763L20.3486 60.1201L20.3544 60.137L20.3604 60.1538L22.2422 59.4763ZM28.0022 68.2363L26.7853 69.8236L26.7978 69.8331L26.8105 69.8425L28.0022 68.2363ZM36.5222 85.4363C29.9841 85.4363 24.1933 83.8448 19.0932 80.6947L16.9912 84.0979C22.7711 87.6679 29.3003 89.4363 36.5222 89.4363V85.4363ZM19.1111 80.706C14.0239 77.489 9.98135 72.832 7.0042 66.6487L3.40019 68.384C6.66304 75.1606 11.1805 80.4236 16.9733 84.0867L19.1111 80.706ZM7.0042 66.6487C4.04565 60.504 2.52219 52.977 2.52219 43.9963H-1.47781C-1.47781 53.4156 0.118741 61.5686 3.40019 68.384L7.0042 66.6487ZM2.52219 43.9963C2.52219 35.0156 4.04565 27.4886 7.0042 21.344L3.40019 19.6087C0.118741 26.424 -1.47781 34.577 -1.47781 43.9963H2.52219ZM7.0042 21.344C9.97988 15.1637 14.0174 10.553 19.0932 7.41793L16.9912 4.01474C11.187 7.59968 6.66451 12.829 3.40019 19.6087L7.0042 21.344ZM19.1111 7.40672C24.209 4.18305 29.9934 2.55634 36.5222 2.55634V-1.44366C29.291 -1.44366 22.7554 0.369619 16.9733 4.02595L19.1111 7.40672ZM36.5222 2.55634C43.1361 2.55634 48.914 4.18546 53.922 7.39951L56.0824 4.03316C50.3704 0.367214 43.8282 -1.44366 36.5222 -1.44366V2.55634ZM53.9512 7.41793C59.027 10.553 63.0645 15.1637 66.0402 21.344L69.6442 19.6087C66.3799 12.829 61.8574 7.59968 56.0532 4.01474L53.9512 7.41793ZM66.0402 21.344C68.9987 27.4886 70.5222 35.0156 70.5222 43.9963H74.5222C74.5222 34.577 72.9257 26.424 69.6442 19.6087L66.0402 21.344ZM70.5222 43.9963C70.5222 52.977 68.9987 60.504 66.0402 66.6487L69.6442 68.384C72.9257 61.5686 74.5222 53.4156 74.5222 43.9963H70.5222ZM66.0402 66.6487C63.063 72.832 59.0205 77.489 53.9333 80.706L56.0711 84.0867C61.8639 80.4236 66.3814 75.1606 69.6442 68.384L66.0402 66.6487ZM53.9399 80.7018C48.9298 83.8425 43.1454 85.4363 36.5222 85.4363V89.4363C43.819 89.4363 50.3546 87.6702 56.0645 84.0909L53.9399 80.7018ZM36.5222 72.9963C40.2026 72.9963 43.4797 71.9544 46.2591 69.8236L43.8253 66.6491C41.8046 68.1983 39.4018 68.9963 36.5222 68.9963V72.9963ZM46.2339 69.8425C49.1404 67.6861 51.2519 64.3667 52.6957 60.1201L48.9087 58.8325C47.6325 62.5859 45.904 65.1066 43.8505 66.6301L46.2339 69.8425ZM52.684 60.1538C54.2304 55.8581 54.9622 50.4458 54.9622 43.9963H50.9622C50.9622 50.1868 50.254 55.0946 48.9204 58.7989L52.684 60.1538ZM54.9622 43.9963C54.9622 37.5468 54.2304 32.1346 52.684 27.8389L48.9204 29.1938C50.254 32.8981 50.9622 37.8059 50.9622 43.9963H54.9622ZM52.6957 27.8725C51.2519 23.6259 49.1404 20.3066 46.2339 18.1501L43.8505 21.3625C45.904 22.8861 47.6325 25.4067 48.9087 29.1601L52.6957 27.8725ZM46.2591 18.1691C43.4797 16.0383 40.2026 14.9963 36.5222 14.9963V18.9963C39.4018 18.9963 41.8046 19.7943 43.8253 21.3435L46.2591 18.1691ZM36.5222 14.9963C32.9097 14.9963 29.6483 16.0446 26.8105 18.1501L29.1939 21.3625C31.3161 19.788 33.7347 18.9963 36.5222 18.9963V14.9963ZM26.7853 18.1691C23.9812 20.319 21.8798 23.6184 20.3604 27.8389L24.124 29.1938C25.4846 25.4143 27.2232 22.8737 29.2191 21.3435L26.7853 18.1691ZM20.3486 27.8725C18.8924 32.1555 18.2022 37.5549 18.2022 43.9963H22.2022C22.2022 37.7978 22.872 32.8771 24.1357 29.1601L20.3486 27.8725ZM18.2022 43.9963C18.2022 50.4378 18.8924 55.8371 20.3486 60.1201L24.1357 58.8325C22.872 55.1155 22.2022 50.1949 22.2022 43.9963H18.2022ZM20.3604 60.1538C21.8798 64.3743 23.9812 67.6737 26.7853 69.8236L29.2191 66.6491C27.2232 65.119 25.4846 62.5784 24.124 58.7989L20.3604 60.1538ZM26.8105 69.8425C29.6483 71.948 32.9097 72.9963 36.5222 72.9963V68.9963C33.7347 68.9963 31.3161 68.2046 29.1939 66.6301L26.8105 69.8425ZM77.1788 85.9963H75.1788V87.9963H77.1788V85.9963ZM77.1788 73.3963L75.8055 71.9423L75.1788 72.5342V73.3963H77.1788ZM109.579 42.7963L108.236 41.3144L108.22 41.3282L108.206 41.3423L109.579 42.7963ZM115.219 36.5563L116.894 37.6489L116.894 37.6489L115.219 36.5563ZM117.619 31.5163L115.712 30.9141L115.697 30.9604L115.685 31.0073L117.619 31.5163ZM114.859 19.6363L113.589 21.1818L113.619 21.2063L113.65 21.2297L114.859 19.6363ZM95.0588 18.9163L94.242 17.0907L94.2329 17.0948L94.2238 17.099L95.0588 18.9163ZM87.4988 25.2763L86.4158 26.9578L88.0099 27.9845L89.1201 26.4473L87.4988 25.2763ZM73.3388 16.1563L71.6747 15.0469L70.5476 16.7376L72.2558 17.8378L73.3388 16.1563ZM86.7788 4.75633L85.9044 2.9576L85.9044 2.9576L86.7788 4.75633ZM123.019 3.67633L122.201 5.50135L122.219 5.50979L122.238 5.51784L123.019 3.67633ZM133.939 12.1963L132.297 13.3385L132.305 13.3504L132.314 13.3622L133.939 12.1963ZM136.819 33.5563L134.885 33.0446L134.88 33.0648L134.875 33.0851L136.819 33.5563ZM132.739 41.9563L131.102 40.8064L131.092 40.8214L131.082 40.8366L132.739 41.9563ZM123.859 51.9163L122.49 50.4582L122.487 50.4605L123.859 51.9163ZM96.9788 77.2363L95.2083 78.1666L96.4332 80.4978L98.3501 78.6922L96.9788 77.2363ZM93.2588 70.1563V68.1563H89.9486L91.4883 71.0866L93.2588 70.1563ZM140.659 70.1563H142.659V68.1563H140.659V70.1563ZM140.659 85.9963V87.9963H142.659V85.9963H140.659ZM79.1788 85.9963V73.3963H75.1788V85.9963H79.1788ZM78.552 74.8504L110.952 44.2504L108.206 41.3423L75.8055 71.9423L78.552 74.8504ZM110.922 44.2783C113.545 41.9009 115.563 39.6898 116.894 37.6489L113.544 35.4638C112.475 37.1028 110.732 39.0518 108.236 41.3144L110.922 44.2783ZM116.894 37.6489C118.168 35.6951 119.082 33.8167 119.553 32.0253L115.685 31.0073C115.356 32.256 114.669 33.7375 113.544 35.4638L116.894 37.6489ZM119.526 32.1186C120.053 30.4495 120.339 28.8436 120.339 27.3163H116.339C116.339 28.3491 116.144 29.5432 115.712 30.9141L119.526 32.1186ZM120.339 27.3163C120.339 23.44 118.967 20.2426 116.068 18.043L113.65 21.2297C115.39 22.5501 116.339 24.4727 116.339 27.3163H120.339ZM116.128 18.0909C113.386 15.8385 109.532 14.8763 104.899 14.8763V18.8763C109.065 18.8763 111.851 19.7542 113.589 21.1818L116.128 18.0909ZM104.899 14.8763C101.114 14.8763 97.5535 15.6093 94.242 17.0907L95.8755 20.742C98.644 19.5034 101.644 18.8763 104.899 18.8763V14.8763ZM94.2238 17.099C90.9223 18.6159 88.1406 20.9717 85.8774 24.1054L89.1201 26.4473C91.0169 23.8209 93.2752 21.9368 95.8938 20.7337L94.2238 17.099ZM88.5817 23.5949L74.4217 14.4749L72.2558 17.8378L86.4158 26.9578L88.5817 23.5949ZM75.0029 17.2657C77.9844 12.7934 82.1768 9.21716 87.6531 6.55507L85.9044 2.9576C79.8607 5.8955 75.0931 9.91929 71.6747 15.0469L75.0029 17.2657ZM87.6531 6.55507C93.0971 3.90869 99.4292 2.55634 106.699 2.55634V-1.44366C98.9283 -1.44366 91.9804 0.00398179 85.9044 2.9576L87.6531 6.55507ZM106.699 2.55634C112.719 2.55634 117.869 3.55979 122.201 5.50135L123.837 1.85131C118.888 -0.367123 113.158 -1.44366 106.699 -1.44366V2.55634ZM122.238 5.51784C126.662 7.39227 129.982 10.0108 132.297 13.3385L135.581 11.0542C132.776 7.02192 128.815 3.9604 123.799 1.83483L122.238 5.51784ZM132.314 13.3622C134.679 16.6589 135.899 20.6377 135.899 25.3963H139.899C139.899 19.9149 138.479 15.0938 135.564 11.0305L132.314 13.3622ZM135.899 25.3963C135.899 27.9377 135.563 30.4858 134.885 33.0446L138.752 34.0681C139.515 31.1869 139.899 28.295 139.899 25.3963H135.899ZM134.875 33.0851C134.31 35.4156 133.083 37.9873 131.102 40.8064L134.375 43.1062C136.554 40.0054 138.047 36.9771 138.762 34.0275L134.875 33.0851ZM131.082 40.8366C129.195 43.6284 126.35 46.8344 122.49 50.4582L125.228 53.3745C129.207 49.6383 132.282 46.2043 134.396 43.0761L131.082 40.8366ZM122.487 50.4605L95.6074 75.7805L98.3501 78.6922L125.23 53.3722L122.487 50.4605ZM98.7492 76.3061L95.0292 69.2261L91.4883 71.0866L95.2083 78.1666L98.7492 76.3061ZM93.2588 72.1563H140.659V68.1563H93.2588V72.1563ZM138.659 70.1563V85.9963H142.659V70.1563H138.659ZM140.659 83.9963H77.1788V87.9963H140.659V83.9963Z" fill="white" fill-opacity="0.28" mask="url(#path-1-outside-1_1_224)"/>
</svg>
