<svg width="140" height="88" viewBox="0 0 140 88" fill="none" xmlns="http://www.w3.org/2000/svg">
<mask id="path-1-outside-1_1_189" maskUnits="userSpaceOnUse" x="-1.99997" y="-1.99854" width="144" height="92" fill="black">
<rect fill="white" x="-1.99997" y="-1.99854" width="144" height="92"/>
<path d="M36.68 87.4415C29.8 87.4415 23.64 85.7615 18.2 82.4015C12.76 78.9615 8.48003 74.0015 5.36003 67.5215C2.24003 61.0415 0.680031 53.2015 0.680031 44.0015C0.680031 34.8015 2.24003 26.9615 5.36003 20.4815C8.48003 14.0015 12.76 9.08146 18.2 5.72146C23.64 2.28146 29.8 0.561463 36.68 0.561463C43.64 0.561463 49.8 2.28146 55.16 5.72146C60.6 9.08146 64.88 14.0015 68 20.4815C71.12 26.9615 72.68 34.8015 72.68 44.0015C72.68 53.2015 71.12 61.0415 68 67.5215C64.88 74.0015 60.6 78.9615 55.16 82.4015C49.8 85.7615 43.64 87.4415 36.68 87.4415ZM36.68 71.0015C39.96 71.0015 42.8 70.0815 45.2 68.2415C47.68 66.4015 49.6 63.4815 50.96 59.4815C52.4 55.4815 53.12 50.3215 53.12 44.0015C53.12 37.6815 52.4 32.5215 50.96 28.5215C49.6 24.5215 47.68 21.6015 45.2 19.7615C42.8 17.9215 39.96 17.0015 36.68 17.0015C33.48 17.0015 30.64 17.9215 28.16 19.7615C25.76 21.6015 23.84 24.5215 22.4 28.5215C21.04 32.5215 20.36 37.6815 20.36 44.0015C20.36 50.3215 21.04 55.4815 22.4 59.4815C23.84 63.4815 25.76 66.4015 28.16 68.2415C30.64 70.0815 33.48 71.0015 36.68 71.0015ZM104.593 87.4415C98.7535 87.4415 92.9535 86.6815 87.1935 85.1615C81.4335 83.5615 76.5535 81.3215 72.5535 78.4415L80.1135 63.5615C83.3135 65.8815 87.0335 67.7215 91.2735 69.0815C95.5135 70.4415 99.7935 71.1215 104.113 71.1215C108.993 71.1215 112.833 70.1615 115.633 68.2415C118.433 66.3215 119.833 63.6815 119.833 60.3215C119.833 57.1215 118.593 54.6015 116.113 52.7615C113.633 50.9215 109.633 50.0015 104.113 50.0015H95.2335V37.1615L118.633 10.6415L120.793 17.6015H76.7535V2.00146H135.553V14.6015L112.273 41.1215L102.433 35.4815H108.073C118.393 35.4815 126.193 37.8015 131.473 42.4415C136.753 47.0815 139.393 53.0415 139.393 60.3215C139.393 65.0415 138.153 69.4815 135.673 73.6415C133.193 77.7215 129.393 81.0415 124.273 83.6015C119.153 86.1615 112.593 87.4415 104.593 87.4415Z"/>
</mask>
<path d="M36.68 87.4415C29.8 87.4415 23.64 85.7615 18.2 82.4015C12.76 78.9615 8.48003 74.0015 5.36003 67.5215C2.24003 61.0415 0.680031 53.2015 0.680031 44.0015C0.680031 34.8015 2.24003 26.9615 5.36003 20.4815C8.48003 14.0015 12.76 9.08146 18.2 5.72146C23.64 2.28146 29.8 0.561463 36.68 0.561463C43.64 0.561463 49.8 2.28146 55.16 5.72146C60.6 9.08146 64.88 14.0015 68 20.4815C71.12 26.9615 72.68 34.8015 72.68 44.0015C72.68 53.2015 71.12 61.0415 68 67.5215C64.88 74.0015 60.6 78.9615 55.16 82.4015C49.8 85.7615 43.64 87.4415 36.68 87.4415ZM36.68 71.0015C39.96 71.0015 42.8 70.0815 45.2 68.2415C47.68 66.4015 49.6 63.4815 50.96 59.4815C52.4 55.4815 53.12 50.3215 53.12 44.0015C53.12 37.6815 52.4 32.5215 50.96 28.5215C49.6 24.5215 47.68 21.6015 45.2 19.7615C42.8 17.9215 39.96 17.0015 36.68 17.0015C33.48 17.0015 30.64 17.9215 28.16 19.7615C25.76 21.6015 23.84 24.5215 22.4 28.5215C21.04 32.5215 20.36 37.6815 20.36 44.0015C20.36 50.3215 21.04 55.4815 22.4 59.4815C23.84 63.4815 25.76 66.4015 28.16 68.2415C30.64 70.0815 33.48 71.0015 36.68 71.0015ZM104.593 87.4415C98.7535 87.4415 92.9535 86.6815 87.1935 85.1615C81.4335 83.5615 76.5535 81.3215 72.5535 78.4415L80.1135 63.5615C83.3135 65.8815 87.0335 67.7215 91.2735 69.0815C95.5135 70.4415 99.7935 71.1215 104.113 71.1215C108.993 71.1215 112.833 70.1615 115.633 68.2415C118.433 66.3215 119.833 63.6815 119.833 60.3215C119.833 57.1215 118.593 54.6015 116.113 52.7615C113.633 50.9215 109.633 50.0015 104.113 50.0015H95.2335V37.1615L118.633 10.6415L120.793 17.6015H76.7535V2.00146H135.553V14.6015L112.273 41.1215L102.433 35.4815H108.073C118.393 35.4815 126.193 37.8015 131.473 42.4415C136.753 47.0815 139.393 53.0415 139.393 60.3215C139.393 65.0415 138.153 69.4815 135.673 73.6415C133.193 77.7215 129.393 81.0415 124.273 83.6015C119.153 86.1615 112.593 87.4415 104.593 87.4415Z" fill="#040E25" fill-opacity="0.85"/>
<path d="M18.2 82.4015L17.1311 84.0919L17.14 84.0975L17.149 84.1031L18.2 82.4015ZM5.36003 67.5215L3.55803 68.3891L5.36003 67.5215ZM5.36003 20.4815L7.16203 21.3491L7.16203 21.3491L5.36003 20.4815ZM18.2 5.72146L19.251 7.42306L19.26 7.4175L19.269 7.41185L18.2 5.72146ZM55.16 5.72146L54.0798 7.40463L54.0943 7.41397L54.109 7.42306L55.16 5.72146ZM68 20.4815L66.198 21.3491L66.198 21.3491L68 20.4815ZM68 67.5215L66.198 66.6538L66.198 66.6538L68 67.5215ZM55.16 82.4015L56.2223 84.0961L56.229 84.0919L55.16 82.4015ZM45.2 68.2415L44.0083 66.6353L43.9957 66.6447L43.9832 66.6543L45.2 68.2415ZM50.96 59.4815L49.0783 58.804L49.0722 58.8208L49.0665 58.8377L50.96 59.4815ZM50.96 28.5215L49.0665 29.1653L49.0722 29.1821L49.0783 29.1989L50.96 28.5215ZM45.2 19.7615L43.9832 21.3487L43.9957 21.3583L44.0083 21.3677L45.2 19.7615ZM28.16 19.7615L26.9683 18.1553L26.9557 18.1647L26.9432 18.1742L28.16 19.7615ZM22.4 28.5215L20.5183 27.844L20.5122 27.8608L20.5065 27.8777L22.4 28.5215ZM22.4 59.4815L20.5065 60.1253L20.5122 60.1421L20.5183 60.1589L22.4 59.4815ZM28.16 68.2415L26.9432 69.8287L26.9557 69.8383L26.9683 69.8477L28.16 68.2415ZM36.68 85.4415C30.1419 85.4415 24.3511 83.8499 19.251 80.6999L17.149 84.1031C22.929 87.673 29.4581 89.4415 36.68 89.4415V85.4415ZM19.269 80.7111C14.1818 77.4942 10.1392 72.8372 7.16203 66.6538L3.55803 68.3891C6.82087 75.1658 11.3383 80.4288 17.1311 84.0919L19.269 80.7111ZM7.16203 66.6538C4.20348 60.5092 2.68003 52.9822 2.68003 44.0015H-1.31997C-1.31997 53.4208 0.276578 61.5738 3.55803 68.3891L7.16203 66.6538ZM2.68003 44.0015C2.68003 35.0208 4.20348 27.4938 7.16203 21.3491L3.55803 19.6138C0.276578 26.4291 -1.31997 34.5822 -1.31997 44.0015H2.68003ZM7.16203 21.3491C10.1377 15.1688 14.1752 10.5581 19.251 7.42306L17.149 4.01987C11.3449 7.60481 6.82234 12.8341 3.55803 19.6138L7.16203 21.3491ZM19.269 7.41185C24.3668 4.18818 30.1512 2.56146 36.68 2.56146V-1.43854C29.4488 -1.43854 22.9132 0.374745 17.1311 4.03107L19.269 7.41185ZM36.68 2.56146C43.294 2.56146 49.0718 4.19058 54.0798 7.40463L56.2403 4.03829C50.5282 0.372341 43.9861 -1.43854 36.68 -1.43854V2.56146ZM54.109 7.42306C59.1849 10.5581 63.2223 15.1688 66.198 21.3491L69.802 19.6138C66.5377 12.8341 62.0152 7.60481 56.211 4.01987L54.109 7.42306ZM66.198 21.3491C69.1566 27.4938 70.68 35.0208 70.68 44.0015H74.68C74.68 34.5822 73.0835 26.4291 69.802 19.6138L66.198 21.3491ZM70.68 44.0015C70.68 52.9822 69.1566 60.5092 66.198 66.6538L69.802 68.3891C73.0835 61.5738 74.68 53.4208 74.68 44.0015H70.68ZM66.198 66.6538C63.2209 72.8372 59.1783 77.4942 54.0911 80.7111L56.229 84.0919C62.0218 80.4288 66.5392 75.1658 69.802 68.3891L66.198 66.6538ZM54.0978 80.7069C49.0876 83.8476 43.3033 85.4415 36.68 85.4415V89.4415C43.9768 89.4415 50.5125 87.6753 56.2223 84.096L54.0978 80.7069ZM36.68 73.0015C40.3605 73.0015 43.6376 71.9595 46.4169 69.8287L43.9832 66.6543C41.9625 68.2034 39.5596 69.0015 36.68 69.0015V73.0015ZM46.3917 69.8477C49.2982 67.6912 51.4097 64.3719 52.8536 60.1253L49.0665 58.8377C47.7903 62.5911 46.0619 65.1117 44.0083 66.6353L46.3917 69.8477ZM52.8418 60.1589C54.3883 55.8632 55.12 50.451 55.12 44.0015H51.12C51.12 50.1919 50.4118 55.0997 49.0783 58.804L52.8418 60.1589ZM55.12 44.0015C55.12 37.5519 54.3883 32.1397 52.8418 27.844L49.0783 29.1989C50.4118 32.9032 51.12 37.811 51.12 44.0015H55.12ZM52.8536 27.8777C51.4097 23.6311 49.2982 20.3117 46.3917 18.1553L44.0083 21.3677C46.0619 22.8912 47.7903 25.4119 49.0665 29.1653L52.8536 27.8777ZM46.4169 18.1742C43.6376 16.0434 40.3605 15.0015 36.68 15.0015V19.0015C39.5596 19.0015 41.9625 19.7995 43.9832 21.3487L46.4169 18.1742ZM36.68 15.0015C33.0675 15.0015 29.8062 16.0498 26.9683 18.1553L29.3517 21.3677C31.4739 19.7931 33.8926 19.0015 36.68 19.0015V15.0015ZM26.9432 18.1742C24.139 20.3241 22.0376 23.6235 20.5183 27.844L24.2818 29.1989C25.6424 25.4194 27.381 22.8788 29.3769 21.3487L26.9432 18.1742ZM20.5065 27.8777C19.0503 32.1607 18.36 37.56 18.36 44.0015H22.36C22.36 37.8029 23.0298 32.8823 24.2936 29.1653L20.5065 27.8777ZM18.36 44.0015C18.36 50.4429 19.0503 55.8423 20.5065 60.1253L24.2936 58.8377C23.0298 55.1207 22.36 50.2 22.36 44.0015H18.36ZM20.5183 60.1589C22.0376 64.3794 24.139 67.6788 26.9432 69.8287L29.3769 66.6543C27.381 65.1241 25.6424 62.5835 24.2818 58.804L20.5183 60.1589ZM26.9683 69.8477C29.8062 71.9532 33.0675 73.0015 36.68 73.0015V69.0015C33.8926 69.0015 31.4739 68.2098 29.3517 66.6353L26.9683 69.8477ZM87.1935 85.1615L86.6582 87.0885L86.6707 87.092L86.6832 87.0953L87.1935 85.1615ZM72.5535 78.4415L70.7704 77.5356L69.9942 79.0633L71.3849 80.0645L72.5535 78.4415ZM80.1135 63.5615L81.2874 61.9422L79.3913 60.5675L78.3304 62.6556L80.1135 63.5615ZM91.2735 69.0815L90.6626 70.9859L90.6626 70.9859L91.2735 69.0815ZM115.633 68.2415L116.765 69.8909L116.765 69.8909L115.633 68.2415ZM116.113 52.7615L117.305 51.1553L116.113 52.7615ZM95.2335 50.0015H93.2335V52.0015H95.2335V50.0015ZM95.2335 37.1615L93.7338 35.8382L93.2335 36.4053V37.1615H95.2335ZM118.633 10.6415L120.544 10.0487L119.489 6.64938L117.134 9.31822L118.633 10.6415ZM120.793 17.6015V19.6015H123.508L122.704 17.0087L120.793 17.6015ZM76.7535 17.6015H74.7535V19.6015H76.7535V17.6015ZM76.7535 2.00146V0.00145912H74.7535V2.00146H76.7535ZM135.553 2.00146H137.553V0.00145912H135.553V2.00146ZM135.553 14.6015L137.057 15.9209L137.553 15.3548V14.6015H135.553ZM112.273 41.1215L111.279 42.8566L112.698 43.6698L113.777 42.4409L112.273 41.1215ZM102.433 35.4815V33.4815H94.9222L101.439 37.2166L102.433 35.4815ZM131.473 42.4415L130.153 43.9438L130.153 43.9438L131.473 42.4415ZM135.673 73.6415L137.383 74.6803L137.387 74.673L137.391 74.6656L135.673 73.6415ZM124.273 83.6015L123.379 81.8126L123.379 81.8126L124.273 83.6015ZM104.593 85.4415C98.9292 85.4415 93.3006 84.7046 87.7038 83.2277L86.6832 87.0953C92.6063 88.6583 98.5778 89.4415 104.593 89.4415V85.4415ZM87.7288 83.2344C82.1492 81.6846 77.4947 79.5347 73.7221 76.8184L71.3849 80.0645C75.6123 83.1083 80.7177 85.4384 86.6582 87.0885L87.7288 83.2344ZM74.3365 79.3474L81.8965 64.4674L78.3304 62.6556L70.7704 77.5356L74.3365 79.3474ZM78.9395 65.1807C82.3311 67.6396 86.2462 69.5693 90.6626 70.9859L91.8843 67.177C87.8207 65.8736 84.2958 64.1233 81.2874 61.9422L78.9395 65.1807ZM90.6626 70.9859C95.0939 72.4073 99.5798 73.1215 104.113 73.1215V69.1215C100.007 69.1215 95.933 68.4757 91.8843 67.177L90.6626 70.9859ZM104.113 73.1215C109.228 73.1215 113.515 72.1191 116.765 69.8909L114.502 66.592C112.152 68.2039 108.759 69.1215 104.113 69.1215V73.1215ZM116.765 69.8909C120.102 67.6027 121.833 64.3491 121.833 60.3215H117.833C117.833 63.0138 116.765 65.0403 114.502 66.592L116.765 69.8909ZM121.833 60.3215C121.833 56.5153 120.315 53.3883 117.305 51.1553L114.922 54.3677C116.872 55.8146 117.833 57.7276 117.833 60.3215H121.833ZM117.305 51.1553C114.3 48.9259 109.765 48.0015 104.113 48.0015V52.0015C109.502 52.0015 112.967 52.917 114.922 54.3677L117.305 51.1553ZM104.113 48.0015H95.2335V52.0015H104.113V48.0015ZM97.2335 50.0015V37.1615H93.2335V50.0015H97.2335ZM96.7331 38.4847L120.133 11.9647L117.134 9.31822L93.7338 35.8382L96.7331 38.4847ZM116.723 11.2343L118.883 18.1943L122.704 17.0087L120.544 10.0487L116.723 11.2343ZM120.793 15.6015H76.7535V19.6015H120.793V15.6015ZM78.7535 17.6015V2.00146H74.7535V17.6015H78.7535ZM76.7535 4.00146H135.553V0.00145912H76.7535V4.00146ZM133.553 2.00146V14.6015H137.553V2.00146H133.553ZM134.05 13.282L110.77 39.802L113.777 42.4409L137.057 15.9209L134.05 13.282ZM113.268 39.3863L103.428 33.7463L101.439 37.2166L111.279 42.8566L113.268 39.3863ZM102.433 37.4815H108.073V33.4815H102.433V37.4815ZM108.073 37.4815C118.13 37.4815 125.376 39.746 130.153 43.9438L132.794 40.9391C127.01 35.8569 118.657 33.4815 108.073 33.4815V37.4815ZM130.153 43.9438C134.984 48.1889 137.393 53.5933 137.393 60.3215H141.393C141.393 52.4897 138.523 45.974 132.794 40.9391L130.153 43.9438ZM137.393 60.3215C137.393 64.6712 136.256 68.7586 133.956 72.6173L137.391 74.6656C140.051 70.2044 141.393 65.4118 141.393 60.3215H137.393ZM133.964 72.6026C131.716 76.302 128.23 79.3872 123.379 81.8126L125.168 85.3903C130.557 82.6958 134.671 79.141 137.383 74.6803L133.964 72.6026ZM123.379 81.8126C118.625 84.1898 112.399 85.4415 104.593 85.4415V89.4415C112.788 89.4415 119.682 88.1331 125.168 85.3903L123.379 81.8126Z" fill="white" fill-opacity="0.28" mask="url(#path-1-outside-1_1_189)"/>
</svg>
