<svg width="155" height="88" viewBox="0 0 155 88" fill="none" xmlns="http://www.w3.org/2000/svg">
<mask id="path-1-outside-1_1_253" maskUnits="userSpaceOnUse" x="-2" y="-2.00073" width="159" height="92" fill="black">
<rect fill="white" x="-2" y="-2.00073" width="159" height="92"/>
<path d="M36.1003 87.4393C29.2203 87.4393 23.0603 85.7593 17.6203 82.3993C12.1803 78.9593 7.90032 73.9993 4.78032 67.5193C1.66032 61.0393 0.100319 53.1993 0.100319 43.9993C0.100319 34.7993 1.66032 26.9593 4.78032 20.4793C7.90032 13.9993 12.1803 9.07926 17.6203 5.71926C23.0603 2.27927 29.2203 0.559266 36.1003 0.559266C43.0603 0.559266 49.2203 2.27927 54.5803 5.71926C60.0203 9.07926 64.3003 13.9993 67.4203 20.4793C70.5403 26.9593 72.1003 34.7993 72.1003 43.9993C72.1003 53.1993 70.5403 61.0393 67.4203 67.5193C64.3003 73.9993 60.0203 78.9593 54.5803 82.3993C49.2203 85.7593 43.0603 87.4393 36.1003 87.4393ZM36.1003 70.9993C39.3803 70.9993 42.2203 70.0793 44.6203 68.2393C47.1003 66.3993 49.0203 63.4793 50.3803 59.4793C51.8203 55.4793 52.5403 50.3193 52.5403 43.9993C52.5403 37.6793 51.8203 32.5193 50.3803 28.5193C49.0203 24.5193 47.1003 21.5993 44.6203 19.7593C42.2203 17.9193 39.3803 16.9993 36.1003 16.9993C32.9003 16.9993 30.0603 17.9193 27.5803 19.7593C25.1803 21.5993 23.2603 24.5193 21.8203 28.5193C20.4603 32.5193 19.7803 37.6793 19.7803 43.9993C19.7803 50.3193 20.4603 55.4793 21.8203 59.4793C23.2603 63.4793 25.1803 66.3993 27.5803 68.2393C30.0603 70.0793 32.9003 70.9993 36.1003 70.9993ZM76.9856 68.3593V55.2793L116.586 1.99926H136.986L98.2256 55.2793L88.7456 52.5193H154.866V68.3593H76.9856ZM122.226 85.9993V68.3593L122.826 52.5193V36.7993H141.186V85.9993H122.226Z"/>
</mask>
<path d="M36.1003 87.4393C29.2203 87.4393 23.0603 85.7593 17.6203 82.3993C12.1803 78.9593 7.90032 73.9993 4.78032 67.5193C1.66032 61.0393 0.100319 53.1993 0.100319 43.9993C0.100319 34.7993 1.66032 26.9593 4.78032 20.4793C7.90032 13.9993 12.1803 9.07926 17.6203 5.71926C23.0603 2.27927 29.2203 0.559266 36.1003 0.559266C43.0603 0.559266 49.2203 2.27927 54.5803 5.71926C60.0203 9.07926 64.3003 13.9993 67.4203 20.4793C70.5403 26.9593 72.1003 34.7993 72.1003 43.9993C72.1003 53.1993 70.5403 61.0393 67.4203 67.5193C64.3003 73.9993 60.0203 78.9593 54.5803 82.3993C49.2203 85.7593 43.0603 87.4393 36.1003 87.4393ZM36.1003 70.9993C39.3803 70.9993 42.2203 70.0793 44.6203 68.2393C47.1003 66.3993 49.0203 63.4793 50.3803 59.4793C51.8203 55.4793 52.5403 50.3193 52.5403 43.9993C52.5403 37.6793 51.8203 32.5193 50.3803 28.5193C49.0203 24.5193 47.1003 21.5993 44.6203 19.7593C42.2203 17.9193 39.3803 16.9993 36.1003 16.9993C32.9003 16.9993 30.0603 17.9193 27.5803 19.7593C25.1803 21.5993 23.2603 24.5193 21.8203 28.5193C20.4603 32.5193 19.7803 37.6793 19.7803 43.9993C19.7803 50.3193 20.4603 55.4793 21.8203 59.4793C23.2603 63.4793 25.1803 66.3993 27.5803 68.2393C30.0603 70.0793 32.9003 70.9993 36.1003 70.9993ZM76.9856 68.3593V55.2793L116.586 1.99926H136.986L98.2256 55.2793L88.7456 52.5193H154.866V68.3593H76.9856ZM122.226 85.9993V68.3593L122.826 52.5193V36.7993H141.186V85.9993H122.226Z" fill="#040E25" fill-opacity="0.85"/>
<path d="M17.6203 82.3993L16.5514 84.0897L16.5603 84.0953L16.5693 84.1009L17.6203 82.3993ZM4.78032 67.5193L2.97832 68.3869L4.78032 67.5193ZM4.78032 20.4793L6.58232 21.3469L6.58232 21.3469L4.78032 20.4793ZM17.6203 5.71926L18.6713 7.42086L18.6803 7.4153L18.6892 7.40965L17.6203 5.71926ZM54.5803 5.71926L53.5001 7.40244L53.5146 7.41178L53.5293 7.42086L54.5803 5.71926ZM67.4203 20.4793L65.6183 21.3469L65.6183 21.3469L67.4203 20.4793ZM67.4203 67.5193L65.6183 66.6516L65.6183 66.6516L67.4203 67.5193ZM54.5803 82.3993L55.6426 84.0939L55.6492 84.0897L54.5803 82.3993ZM44.6203 68.2393L43.4286 66.6331L43.416 66.6425L43.4035 66.6521L44.6203 68.2393ZM50.3803 59.4793L48.4985 58.8018L48.4925 58.8186L48.4868 58.8355L50.3803 59.4793ZM50.3803 28.5193L48.4868 29.1631L48.4925 29.1799L48.4985 29.1967L50.3803 28.5193ZM44.6203 19.7593L43.4035 21.3465L43.416 21.3561L43.4286 21.3655L44.6203 19.7593ZM27.5803 19.7593L26.3886 18.1531L26.376 18.1625L26.3635 18.172L27.5803 19.7593ZM21.8203 28.5193L19.9385 27.8418L19.9325 27.8586L19.9268 27.8755L21.8203 28.5193ZM21.8203 59.4793L19.9268 60.1231L19.9325 60.1399L19.9385 60.1567L21.8203 59.4793ZM27.5803 68.2393L26.3635 69.8265L26.376 69.8361L26.3886 69.8455L27.5803 68.2393ZM36.1003 85.4393C29.5622 85.4393 23.7714 83.8477 18.6713 80.6977L16.5693 84.1009C22.3492 87.6708 28.8784 89.4393 36.1003 89.4393V85.4393ZM18.6892 80.7089C13.602 77.492 9.55948 72.835 6.58232 66.6516L2.97832 68.3869C6.24116 75.1636 10.7586 80.4266 16.5514 84.0897L18.6892 80.7089ZM6.58232 66.6516C3.62377 60.507 2.10032 52.98 2.10032 43.9993H-1.89968C-1.89968 53.4186 -0.303134 61.5716 2.97832 68.3869L6.58232 66.6516ZM2.10032 43.9993C2.10032 35.0186 3.62377 27.4916 6.58232 21.3469L2.97832 19.6116C-0.303134 26.427 -1.89968 34.58 -1.89968 43.9993H2.10032ZM6.58232 21.3469C9.55801 15.1666 13.5955 10.5559 18.6713 7.42086L16.5693 4.01767C10.7651 7.60261 6.24263 12.8319 2.97832 19.6116L6.58232 21.3469ZM18.6892 7.40965C23.7871 4.18598 29.5715 2.55927 36.1003 2.55927V-1.44073C28.8691 -1.44073 22.3335 0.372548 16.5514 4.02888L18.6892 7.40965ZM36.1003 2.55927C42.7143 2.55927 48.4921 4.18839 53.5001 7.40244L55.6606 4.03609C49.9485 0.370143 43.4064 -1.44073 36.1003 -1.44073V2.55927ZM53.5293 7.42086C58.6051 10.5559 62.6426 15.1666 65.6183 21.3469L69.2223 19.6116C65.958 12.8319 61.4355 7.60261 55.6313 4.01767L53.5293 7.42086ZM65.6183 21.3469C68.5769 27.4916 70.1003 35.0186 70.1003 43.9993H74.1003C74.1003 34.58 72.5038 26.427 69.2223 19.6116L65.6183 21.3469ZM70.1003 43.9993C70.1003 52.98 68.5769 60.507 65.6183 66.6516L69.2223 68.3869C72.5038 61.5716 74.1003 53.4186 74.1003 43.9993H70.1003ZM65.6183 66.6516C62.6412 72.835 58.5986 77.492 53.5114 80.7089L55.6492 84.0897C61.442 80.4266 65.9595 75.1636 69.2223 68.3869L65.6183 66.6516ZM53.5181 80.7047C48.5079 83.8454 42.7235 85.4393 36.1003 85.4393V89.4393C43.3971 89.4393 49.9327 87.6731 55.6426 84.0938L53.5181 80.7047ZM36.1003 72.9993C39.7808 72.9993 43.0579 71.9573 45.8372 69.8265L43.4035 66.6521C41.3828 68.2013 38.9799 68.9993 36.1003 68.9993V72.9993ZM45.812 69.8455C48.7185 67.689 50.83 64.3697 52.2739 60.1231L48.4868 58.8355C47.2106 62.5889 45.4821 65.1095 43.4286 66.6331L45.812 69.8455ZM52.2621 60.1567C53.8086 55.861 54.5403 50.4488 54.5403 43.9993H50.5403C50.5403 50.1897 49.8321 55.0975 48.4985 58.8018L52.2621 60.1567ZM54.5403 43.9993C54.5403 37.5498 53.8086 32.1375 52.2621 27.8418L48.4985 29.1967C49.8321 32.901 50.5403 37.8088 50.5403 43.9993H54.5403ZM52.2739 27.8755C50.83 23.6289 48.7185 20.3095 45.812 18.1531L43.4286 21.3655C45.4821 22.889 47.2106 25.4097 48.4868 29.1631L52.2739 27.8755ZM45.8372 18.172C43.0579 16.0412 39.7808 14.9993 36.1003 14.9993V18.9993C38.9799 18.9993 41.3828 19.7973 43.4035 21.3465L45.8372 18.172ZM36.1003 14.9993C32.4878 14.9993 29.2265 16.0476 26.3886 18.1531L28.772 21.3655C30.8942 19.791 33.3128 18.9993 36.1003 18.9993V14.9993ZM26.3635 18.172C23.5593 20.3219 21.4579 23.6213 19.9385 27.8418L23.7021 29.1967C25.0627 25.4172 26.8013 22.8766 28.7972 21.3465L26.3635 18.172ZM19.9268 27.8755C18.4706 32.1585 17.7803 37.5578 17.7803 43.9993H21.7803C21.7803 37.8007 22.4501 32.8801 23.7139 29.1631L19.9268 27.8755ZM17.7803 43.9993C17.7803 50.4407 18.4706 55.8401 19.9268 60.1231L23.7139 58.8355C22.4501 55.1185 21.7803 50.1978 21.7803 43.9993H17.7803ZM19.9385 60.1567C21.4579 64.3772 23.5593 67.6766 26.3635 69.8265L28.7972 66.6521C26.8013 65.1219 25.0627 62.5813 23.7021 58.8018L19.9385 60.1567ZM26.3886 69.8455C29.2265 71.951 32.4878 72.9993 36.1003 72.9993V68.9993C33.3128 68.9993 30.8942 68.2076 28.772 66.6331L26.3886 69.8455ZM76.9856 68.3593H74.9856V70.3593H76.9856V68.3593ZM76.9856 55.2793L75.3804 54.0862L74.9856 54.6174V55.2793H76.9856ZM116.586 1.99926V-0.000738144H115.58L114.98 0.806215L116.586 1.99926ZM136.986 1.99926L138.603 3.17582L140.914 -0.000738144H136.986V1.99926ZM98.2256 55.2793L97.6666 57.1995L99.0161 57.5924L99.8429 56.4558L98.2256 55.2793ZM88.7456 52.5193V50.5193L88.1866 54.4395L88.7456 52.5193ZM154.866 52.5193H156.866V50.5193H154.866V52.5193ZM154.866 68.3593V70.3593H156.866V68.3593H154.866ZM122.226 85.9993H120.226V87.9993H122.226V85.9993ZM122.226 68.3593L120.227 68.2836L120.226 68.3214V68.3593H122.226ZM122.826 52.5193L124.824 52.595L124.826 52.5571V52.5193H122.826ZM122.826 36.7993V34.7993H120.826V36.7993H122.826ZM141.186 36.7993H143.186V34.7993H141.186V36.7993ZM141.186 85.9993V87.9993H143.186V85.9993H141.186ZM78.9856 68.3593V55.2793H74.9856V68.3593H78.9856ZM78.5908 56.4723L118.191 3.19231L114.98 0.806215L75.3804 54.0862L78.5908 56.4723ZM116.586 3.99926H136.986V-0.000738144H116.586V3.99926ZM135.368 0.822702L96.6083 54.1027L99.8429 56.4558L138.603 3.17582L135.368 0.822702ZM98.7847 53.359L89.3047 50.599L88.1866 54.4395L97.6666 57.1995L98.7847 53.359ZM88.7456 54.5193H154.866V50.5193H88.7456V54.5193ZM152.866 52.5193V68.3593H156.866V52.5193H152.866ZM154.866 66.3593H76.9856V70.3593H154.866V66.3593ZM124.226 85.9993V68.3593H120.226V85.9993H124.226ZM124.224 68.435L124.824 52.595L120.827 52.4436L120.227 68.2836L124.224 68.435ZM124.826 52.5193V36.7993H120.826V52.5193H124.826ZM122.826 38.7993H141.186V34.7993H122.826V38.7993ZM139.186 36.7993V85.9993H143.186V36.7993H139.186ZM141.186 83.9993H122.226V87.9993H141.186V83.9993Z" fill="white" fill-opacity="0.28" mask="url(#path-1-outside-1_1_253)"/>
</svg>
