<svg width="135" height="135" viewBox="0 0 135 135" fill="none" xmlns="http://www.w3.org/2000/svg">
<g filter="url(#filter0_d_0_287)">
<path d="M48.0361 13.8089C59.9494 10.6167 65.9061 9.02058 71.6842 9.7261C74.474 10.0667 77.2022 10.7977 79.7886 11.8977C85.1452 14.1757 89.5058 18.5363 98.227 27.2575C106.948 35.9787 111.309 40.3393 113.587 45.696C114.687 48.2824 115.418 51.0105 115.758 53.8004C116.464 59.5784 114.868 65.5351 111.676 77.4485C108.483 89.3618 106.887 95.3185 103.387 99.9697C101.697 102.215 99.7003 104.213 97.4546 105.903C92.8034 109.403 86.8467 110.999 74.9333 114.191C63.0199 117.383 57.0633 118.979 51.2852 118.274C48.4954 117.933 45.7672 117.202 43.1808 116.102C37.8241 113.824 33.4635 109.463 24.7423 100.742C16.0212 92.021 11.6606 87.6604 9.38253 82.3037C8.28261 79.7173 7.55161 76.9892 7.21096 74.1993C6.50545 68.4213 8.10153 62.4646 11.2937 50.5512C14.4859 38.6378 16.082 32.6811 19.582 28.03C21.2719 25.7842 23.2691 23.7871 25.5148 22.0971C30.166 18.5971 36.1227 17.001 48.0361 13.8089Z" fill="white"/>
<path d="M48.2302 14.5333C60.204 11.3249 65.994 9.78688 71.5933 10.4706C74.3134 10.8027 76.9733 11.5154 79.495 12.5878C84.686 14.7954 88.9313 19.0224 97.6967 27.7878C106.462 36.5532 110.689 40.7985 112.897 45.9895C113.969 48.5112 114.682 51.1712 115.014 53.8913C115.698 59.4906 114.16 65.2806 110.951 77.2543C107.743 89.2281 106.18 95.0114 102.788 99.5187C101.14 101.708 99.1932 103.656 97.0036 105.303C92.4963 108.695 86.713 110.258 74.7392 113.466C62.7654 116.675 56.9754 118.213 51.3761 117.529C48.656 117.197 45.9961 116.484 43.4743 115.412C38.2834 113.204 34.0381 108.977 25.2727 100.212C16.5073 91.4464 12.2803 87.2012 10.0727 82.0102C9.00029 79.4884 8.28757 76.8285 7.95543 74.1084C7.27174 68.5091 8.80979 62.7191 12.0182 50.7453C15.2265 38.7715 16.7895 32.9882 20.1813 28.4809C21.829 26.2913 23.7762 24.3441 25.9658 22.6964C30.4731 19.3047 36.2564 17.7417 48.2302 14.5333Z" stroke="white" stroke-width="1.5"/>
</g>
<defs>
<filter id="filter0_d_0_287" x="0.0202398" y="0.68647" width="134.022" height="134.022" filterUnits="userSpaceOnUse" color-interpolation-filters="sRGB">
<feFlood flood-opacity="0" result="BackgroundImageFix"/>
<feColorMatrix in="SourceAlpha" type="matrix" values="0 0 0 0 0 0 0 0 0 0 0 0 0 0 0 0 0 0 127 0" result="hardAlpha"/>
<feOffset dx="5.54676" dy="3.69784"/>
<feGaussianBlur stdDeviation="6.28632"/>
<feComposite in2="hardAlpha" operator="out"/>
<feColorMatrix type="matrix" values="0 0 0 0 0.295052 0 0 0 0 0.332604 0 0 0 0 0.429167 0 0 0 0.05 0"/>
<feBlend mode="normal" in2="BackgroundImageFix" result="effect1_dropShadow_0_287"/>
<feBlend mode="normal" in="SourceGraphic" in2="effect1_dropShadow_0_287" result="shape"/>
</filter>
</defs>
</svg>
