<svg width="26" height="28" viewBox="0 0 26 28" fill="none" xmlns="http://www.w3.org/2000/svg">
<path fill-rule="evenodd" clip-rule="evenodd" d="M4.27257 5.27801L4.33776 4.99357C4.4622 4.46499 4.66604 3.68753 5.08677 2.92192C5.5158 2.14209 6.18067 1.35159 7.2236 0.831313C8.26298 0.313401 9.56546 0.120221 11.1761 0.333549C12.9538 0.570579 16.5247 1.15841 19.6796 2.76311C22.8522 4.37729 25.8246 7.1541 25.8246 11.7786C25.8246 14.1678 24.9002 16.7313 24.0042 18.4024C23.574 19.2059 23.0632 19.9739 22.5512 20.3875C22.4338 20.4823 22.2667 20.6008 22.0593 20.6838C21.4904 22.5535 20.358 24.2018 18.8167 25.4034C17.2755 26.605 15.4008 27.3012 13.4488 27.3969C11.4969 27.4927 9.563 26.9832 7.91161 25.9381C6.26021 24.8931 4.9719 23.3635 4.2228 21.5584L4.19435 21.5632L3.77362 21.0524L4.68856 20.2986L3.77362 21.0524L3.77244 21.05L3.77007 21.0476L3.76414 21.0393L3.74399 21.0156C3.64257 20.8894 3.54495 20.7602 3.45126 20.6281C3.19535 20.2732 2.95416 19.9078 2.72832 19.533C2.1713 18.611 1.49932 17.2978 1.06911 15.7654C0.64008 14.233 0.443345 12.4363 0.893703 10.5827C1.33221 8.77895 2.36685 7.00359 4.24057 5.41785L4.27257 5.27801ZM6.26363 20.256C6.77764 21.7341 7.76469 23.0016 9.07193 23.862C10.3792 24.7224 11.9336 25.1278 13.4946 25.0154C15.0555 24.9029 16.5358 24.2789 17.7063 23.24C18.8767 22.2011 19.6719 20.8053 19.9687 19.2687L20.1027 19.3138C20.0979 19.2467 20.0956 19.1795 20.0955 19.1123C20.0955 17.1509 19.823 15.782 19.5693 14.9287C19.5198 14.7626 19.4649 14.5982 19.4046 14.4357L19.356 14.438H19.3086C18.4224 14.4572 17.5364 14.3897 16.6633 14.2366C14.6284 13.8929 11.873 13.0348 8.62801 11.0473C8.5569 11.2061 8.48579 11.3851 8.41468 11.5842C8.18239 12.242 7.99158 13.023 7.82685 13.8478C7.68107 14.5743 7.56137 15.3056 7.44759 15.9906L7.40375 16.2608C7.28167 16.9956 7.1596 17.7174 7.01739 18.24C6.7685 19.1478 6.51488 19.7926 6.26363 20.2548V20.256ZM4.60442 18.048C4.06911 17.1292 3.64879 16.148 3.35289 15.1266C2.99853 13.8632 2.86817 12.4956 3.19764 11.1433C3.51763 9.82781 4.29153 8.44473 5.88319 7.13395C6.17 6.93959 6.30037 6.67886 6.33592 6.60893V6.60775C6.39815 6.47961 6.44815 6.34588 6.48525 6.20835C6.52318 6.07324 6.56466 5.88836 6.60377 5.72244L6.64525 5.53637C6.75784 5.05875 6.90361 4.53847 7.16434 4.06322C7.41797 3.60338 7.76522 3.20991 8.28194 2.95274C8.80104 2.69319 9.60457 2.51541 10.8632 2.68371C12.5852 2.91244 15.8243 3.46117 18.6046 4.87624C21.366 6.28064 23.4543 8.40681 23.4543 11.7786C23.4543 13.3311 22.9328 15.097 22.3047 16.4895C22.1862 15.5817 22.0155 14.8398 21.8401 14.252C21.7178 13.8318 21.5653 13.4211 21.3838 13.023C21.3154 12.8754 21.2402 12.7311 21.1586 12.5904L21.1385 12.5584L21.1314 12.5465L21.1278 12.5406L21.1254 12.5371L20.1299 13.177L21.1254 12.5371L20.6869 11.8568L19.9024 12.0144L19.8858 12.018L19.7708 12.0334C19.5944 12.053 19.4173 12.0649 19.2399 12.0689C18.5091 12.0831 17.7788 12.0259 17.0592 11.8983C15.1475 11.5759 12.3387 10.6977 8.92667 8.42577L8.09706 7.8723L7.41086 8.59525C6.84554 9.19019 6.46155 10.002 6.18067 10.7925C5.89386 11.6043 5.67698 12.511 5.50276 13.3809C5.35832 14.1212 5.22714 14.864 5.10929 15.609L5.06425 15.8745C4.93744 16.646 4.83433 17.235 4.73004 17.6166C4.69113 17.7613 4.64925 17.9051 4.60442 18.048ZM21.0555 18.5482L21.0603 18.5458L21.0555 18.5482ZM21.0603 18.5458L21.0555 18.5482L21.0591 18.5458H21.0603Z" fill="#316FD7"/>
</svg>
